<?xml version="1.0" encoding="utf-8"?>
<?xml-stylesheet type="text/xsl" href="rss1.xsl"?>
<rss version="2.0" xmlns:atom="http://www.w3.org/2005/Atom" xmlns:content="http://purl.org/rss/1.0/modules/content/" xmlns:dc="http://purl.org/dc/elements/1.1/" xmlns:media="http://search.yahoo.com/mrss/">
<channel>
 <title>Getty</title>
 <link>http://www.gettyimg.com/</link>
 <atom:link href="http://www.gettyimg.com/" rel="self" type="application/rss+xml" />

 
                <item>
                <title><![CDATA[【Bugs!】Kwon Eun Bi (IZ*ONE) - Esper [Bugs! 4K] (H.264/MP4)]]></title>
                <link><![CDATA[https://sharemania.us/threads/kwon-eun-bi-iz-one-esper-bugs-4k-h-264-mp4.231200/]]></link>
                <description><![CDATA[<article>
<blockquote class="messageText SelectQuoteContainer ugc baseHtml">
ALL CREDITS to <a href="https://sharemania.us/members/135689/" class="username" data-user="135689, @curious_chae">@curious_chae</a> <br>
<br>
<img src="https://i.imgur.com/3XrWgAJ.jpg" class="bbCodeImage LbImage" alt="[​IMG]" data-url="https://i.imgur.com/3XrWgAJ.jpg" style=""> <br>
<br>
<img src="https://i.imgur.com/T81koSY.jpg" class="bbCodeImage LbImage" alt="[​IMG]" data-url="https://i.imgur.com/T81koSY.jpg" style=""><br>
<br>
<br>
<div class="bbCodeBlock bbCodeVfcHH HiddenContent">
<div class="attribution type">Hidden Content:</div>
<blockquote>You must reply before you can see the hidden data contained here.</blockquote>
</div>
<div class="messageTextEndMarker">&nbsp;</div>
</blockquote>
</article>]]></description>
                <author><![CDATA[Kim Min Jeong]]></author>
                </item>

                
                <item>
                <title><![CDATA[【Apple Music】WEB-RiP - Taylor Swift - 1989 (Taylor's Version) [Lyric Video] (2023) [MP4] [Apple Music DL]]]></title>
                <link><![CDATA[https://sharemania.us/threads/taylor-swift-1989-taylors-version-lyric-video-2023-mp4-apple-music-dl.231197/]]></link>
                <description><![CDATA[<article>
<blockquote class="messageText SelectQuoteContainer ugc baseHtml">
<span style="text-decoration: underline"><b>1989 (Taylor's Version) [Lyric Videos] (Apple Music) [AVC + AAC]</b></span><br>
<img src="https://i.imgur.com/po1yOv2.jpg" class="bbCodeImage LbImage" alt="[​IMG]" data-url="https://i.imgur.com/po1yOv2.jpg" style=""><br>
Includes 21 Tracks<br>
<br>
Welcome To New York (Taylor's Version) [Lyric Video]<br>
<img src="https://imgur.com/Yj2CChg.png" class="bbCodeImage LbImage" alt="[​IMG]" data-url="https://imgur.com/Yj2CChg.png" style=""><br>
<div class="ToggleTriggerAnchor bbCodeSpoilerContainer">
<button type="button" class="button bbCodeSpoilerButton ToggleTrigger Tooltip JsOnly" data-target="> .SpoilerTarget"><span>Spoiler: <span class="SpoilerTitle">MEDIA INFO</span></span></button>
<div class="SpoilerTarget bbCodeSpoilerText">General<br>
Format : MPEG-4<br>
Format profile : Base Media<br>
Codec ID : isom (isom/iso2/avc1/mp41)<br>
File size : 257 MiB<br>
Duration : 3 min 37 s<br>
Overall bit rate : 9 904 kb/s<br>
Movie name : Welcome To New York (Taylor's Version) [Lyric Video]<br>
Performer : Taylor Swift<br>
Genre : Pop<br>
ContentType : Music Video<br>
Recorded date : 2023-10-27<br>
ISRC : USUMV2302644<br>
<br>
Video<br>
ID : 1<br>
Format : AVC<br>
Format/Info : Advanced Video Codec<br>
Format profile : High@L4<br>
Format settings : CABAC / 4 Ref Frames<br>
Format settings, CABAC : Yes<br>
Format settings, Reference fra : 4 frames<br>
Codec ID : avc1<br>
Codec ID/Info : Advanced Video Coding<br>
Duration : 3 min 37 s<br>
Bit rate : 9 625 kb/s<br>
Width : 1 920 pixels<br>
Height : 1 080 pixels<br>
Display aspect ratio : 16:9<br>
Frame rate mode : Constant<br>
Frame rate : 29.970 (30000/1001) FPS<br>
Color space : YUV<br>
Chroma subsampling : 4:2:0<br>
Bit depth : 8 bits<br>
Scan type : Progressive<br>
Bits/(Pixel*Frame) : 0.155<br>
Stream size : 250 MiB (97%)<br>
Title : Core Media Video<br>
Color range : Limited<br>
Color primaries : BT.709<br>
Transfer characteristics : BT.709<br>
Matrix coefficients : BT.709<br>
Codec configuration box : avcC<br>
<br>
Audio<br>
ID : 2<br>
Format : AAC LC<br>
Format/Info : Advanced Audio Codec Low Complexity<br>
Codec ID : mp4a-40-2<br>
Duration : 3 min 37 s<br>
Bit rate mode : Constant<br>
Bit rate : 265 kb/s<br>
Channel(s) : 2 channels<br>
Channel layout : L R<br>
Sampling rate : 48.0 kHz<br>
Frame rate : 46.875 FPS (1024 SPF)<br>
Compression mode : Lossy<br>
Stream size : 6.84 MiB (3%)<br>
Title : Core Media Audio<br>
Default : Yes<br>
Alternate group : 1</div>
</div><br>
Blank Space (Taylor's Version) [Lyric Video]<br>
<img src="https://i.imgur.com/85t7FxM.png" class="bbCodeImage LbImage" alt="[​IMG]" data-url="https://i.imgur.com/85t7FxM.png" style=""><br>
<div class="ToggleTriggerAnchor bbCodeSpoilerContainer">
<button type="button" class="button bbCodeSpoilerButton ToggleTrigger Tooltip JsOnly" data-target="> .SpoilerTarget"><span>Spoiler: <span class="SpoilerTitle">MEDIA INFO</span></span></button>
<div class="SpoilerTarget bbCodeSpoilerText">General<br>
Format : MPEG-4<br>
Format profile : Base Media<br>
Codec ID : isom (isom/iso2/avc1/mp41)<br>
File size : 196 MiB<br>
Duration : 3 min 57 s<br>
Overall bit rate : 6 920 kb/s<br>
Movie name : Blank Space (Taylor's Version) [Lyric Video]<br>
Performer : Taylor Swift<br>
Genre : Pop<br>
ContentType : Music Video<br>
Recorded date : 2023-10-27<br>
ISRC : USUMV2302645<br>
<br>
Video<br>
ID : 1<br>
Format : AVC<br>
Format/Info : Advanced Video Codec<br>
Format profile : High@L4<br>
Format settings : CABAC / 4 Ref Frames<br>
Format settings, CABAC : Yes<br>
Format settings, Reference fra : 4 frames<br>
Codec ID : avc1<br>
Codec ID/Info : Advanced Video Coding<br>
Duration : 3 min 56 s<br>
Bit rate : 6 636 kb/s<br>
Width : 1 920 pixels<br>
Height : 1 080 pixels<br>
Display aspect ratio : 16:9<br>
Frame rate mode : Constant<br>
Frame rate : 29.970 (30000/1001) FPS<br>
Color space : YUV<br>
Chroma subsampling : 4:2:0<br>
Bit depth : 8 bits<br>
Scan type : Progressive<br>
Bits/(Pixel*Frame) : 0.107<br>
Stream size : 187 MiB (96%)<br>
Title : Core Media Video<br>
Color range : Limited<br>
Color primaries : BT.709<br>
Transfer characteristics : BT.709<br>
Matrix coefficients : BT.709<br>
Codec configuration box : avcC<br>
<br>
Audio<br>
ID : 2<br>
Format : AAC LC<br>
Format/Info : Advanced Audio Codec Low Complexity<br>
Codec ID : mp4a-40-2<br>
Duration : 3 min 57 s<br>
Bit rate mode : Constant<br>
Bit rate : 265 kb/s<br>
Channel(s) : 2 channels<br>
Channel layout : L R<br>
Sampling rate : 48.0 kHz<br>
Frame rate : 46.875 FPS (1024 SPF)<br>
Compression mode : Lossy<br>
Stream size : 7.62 MiB (4%)<br>
Title : Core Media Audio<br>
Default : Yes<br>
Alternate group : 1</div>
</div><br>
Style (Taylor's Version) [Lyric Video]<br>
<img src="https://i.imgur.com/VjlUigw.png" class="bbCodeImage LbImage" alt="[​IMG]" data-url="https://i.imgur.com/VjlUigw.png" style=""><br>
<div class="ToggleTriggerAnchor bbCodeSpoilerContainer">
<button type="button" class="button bbCodeSpoilerButton ToggleTrigger Tooltip JsOnly" data-target="> .SpoilerTarget"><span>Spoiler: <span class="SpoilerTitle">MEDIA INFO</span></span></button>
<div class="SpoilerTarget bbCodeSpoilerText">General<br>
Format : MPEG-4<br>
Format profile : Base Media<br>
Codec ID : isom (isom/iso2/avc1/mp41)<br>
File size : 194 MiB<br>
Duration : 3 min 55 s<br>
Overall bit rate : 6 926 kb/s<br>
Movie name : Style (Taylor's Version) [Lyric Video]<br>
Performer : Taylor Swift<br>
Genre : Pop<br>
ContentType : Music Video<br>
Recorded date : 2023-10-27<br>
ISRC : USUMV2302646<br>
<br>
Video<br>
ID : 1<br>
Format : AVC<br>
Format/Info : Advanced Video Codec<br>
Format profile : High@L4<br>
Format settings : CABAC / 4 Ref Frames<br>
Format settings, CABAC : Yes<br>
Format settings, Reference fra : 4 frames<br>
Codec ID : avc1<br>
Codec ID/Info : Advanced Video Coding<br>
Duration : 3 min 55 s<br>
Bit rate : 6 646 kb/s<br>
Width : 1 920 pixels<br>
Height : 1 080 pixels<br>
Display aspect ratio : 16:9<br>
Frame rate mode : Constant<br>
Frame rate : 29.970 (30000/1001) FPS<br>
Color space : YUV<br>
Chroma subsampling : 4:2:0<br>
Bit depth : 8 bits<br>
Scan type : Progressive<br>
Bits/(Pixel*Frame) : 0.107<br>
Stream size : 187 MiB (96%)<br>
Title : Core Media Video<br>
Color range : Limited<br>
Color primaries : BT.709<br>
Transfer characteristics : BT.709<br>
Matrix coefficients : BT.709<br>
Codec configuration box : avcC<br>
<br>
Audio<br>
ID : 2<br>
Format : AAC LC<br>
Format/Info : Advanced Audio Codec Low Complexity<br>
Codec ID : mp4a-40-2<br>
Duration : 3 min 55 s<br>
Bit rate mode : Constant<br>
Bit rate : 265 kb/s<br>
Channel(s) : 2 channels<br>
Channel layout : L R<br>
Sampling rate : 48.0 kHz<br>
Frame rate : 46.875 FPS (1024 SPF)<br>
Compression mode : Lossy<br>
Stream size : 7.46 MiB (4%)<br>
Title : Core Media Audio<br>
Default : Yes<br>
Alternate group : 1</div>
</div><br>
Out Of The Woods (Taylor's Version) [Lyric Video]<br>
<img src="https://i.imgur.com/ARUw2LA.png" class="bbCodeImage LbImage" alt="[​IMG]" data-url="https://i.imgur.com/ARUw2LA.png" style=""><br>
<div class="ToggleTriggerAnchor bbCodeSpoilerContainer">
<button type="button" class="button bbCodeSpoilerButton ToggleTrigger Tooltip JsOnly" data-target="> .SpoilerTarget"><span>Spoiler: <span class="SpoilerTitle">MEDIA INFO</span></span></button>
<div class="SpoilerTarget bbCodeSpoilerText">General<br>
Format : MPEG-4<br>
Format profile : Base Media<br>
Codec ID : isom (isom/iso2/avc1/mp41)<br>
File size : 284 MiB<br>
Duration : 4 min 1 s<br>
Overall bit rate : 9 888 kb/s<br>
Movie name : Out Of The Woods (Taylor's Version) [Lyric Video]<br>
Performer : Taylor Swift<br>
Genre : Pop<br>
ContentType : Music Video<br>
Recorded date : 2023-10-27<br>
ISRC : USUMV2302647<br>
<br>
Video<br>
ID : 1<br>
Format : AVC<br>
Format/Info : Advanced Video Codec<br>
Format profile : High@L4<br>
Format settings : CABAC / 4 Ref Frames<br>
Format settings, CABAC : Yes<br>
Format settings, Reference fra : 4 frames<br>
Codec ID : avc1<br>
Codec ID/Info : Advanced Video Coding<br>
Duration : 4 min 1 s<br>
Bit rate : 9 604 kb/s<br>
Width : 1 920 pixels<br>
Height : 1 080 pixels<br>
Display aspect ratio : 16:9<br>
Frame rate mode : Constant<br>
Frame rate : 29.970 (30000/1001) FPS<br>
Color space : YUV<br>
Chroma subsampling : 4:2:0<br>
Bit depth : 8 bits<br>
Scan type : Progressive<br>
Bits/(Pixel*Frame) : 0.155<br>
Stream size : 276 MiB (97%)<br>
Title : Core Media Video<br>
Color range : Limited<br>
Color primaries : BT.709<br>
Transfer characteristics : BT.709<br>
Matrix coefficients : BT.709<br>
Codec configuration box : avcC<br>
<br>
Audio<br>
ID : 2<br>
Format : AAC LC<br>
Format/Info : Advanced Audio Codec Low Complexity<br>
Codec ID : mp4a-40-2<br>
Duration : 4 min 1 s<br>
Bit rate mode : Constant<br>
Bit rate : 265 kb/s<br>
Channel(s) : 2 channels<br>
Channel layout : L R<br>
Sampling rate : 48.0 kHz<br>
Frame rate : 46.875 FPS (1024 SPF)<br>
Compression mode : Lossy<br>
Stream size : 7.68 MiB (3%)<br>
Title : Core Media Audio<br>
Default : Yes<br>
Alternate group : 1</div>
</div><br>
All You Had To Do Was Stay (Taylor's Version) [Lyric Video]<br>
<img src="https://i.imgur.com/cCpORNA.png" class="bbCodeImage LbImage" alt="[​IMG]" data-url="https://i.imgur.com/cCpORNA.png" style=""><br>
<div class="ToggleTriggerAnchor bbCodeSpoilerContainer">
<button type="button" class="button bbCodeSpoilerButton ToggleTrigger Tooltip JsOnly" data-target="> .SpoilerTarget"><span>Spoiler: <span class="SpoilerTitle">MEDIA INFO</span></span></button>
<div class="SpoilerTarget bbCodeSpoilerText">General<br>
Format : MPEG-4<br>
Format profile : Base Media<br>
Codec ID : isom (isom/iso2/avc1/mp41)<br>
File size : 161 MiB<br>
Duration : 3 min 18 s<br>
Overall bit rate : 6 790 kb/s<br>
Movie name : All You Had To Do Was Stay (Taylor's Version) [Lyric Video]<br>
Performer : Taylor Swift<br>
Genre : Pop<br>
ContentType : Music Video<br>
Recorded date : 2023-10-27<br>
ISRC : USUMV2302648<br>
<br>
Video<br>
ID : 1<br>
Format : AVC<br>
Format/Info : Advanced Video Codec<br>
Format profile : High@L4<br>
Format settings : CABAC / 4 Ref Frames<br>
Format settings, CABAC : Yes<br>
Format settings, Reference fra : 4 frames<br>
Codec ID : avc1<br>
Codec ID/Info : Advanced Video Coding<br>
Duration : 3 min 18 s<br>
Bit rate : 6 509 kb/s<br>
Width : 1 920 pixels<br>
Height : 1 080 pixels<br>
Display aspect ratio : 16:9<br>
Frame rate mode : Constant<br>
Frame rate : 29.970 (30000/1001) FPS<br>
Color space : YUV<br>
Chroma subsampling : 4:2:0<br>
Bit depth : 8 bits<br>
Scan type : Progressive<br>
Bits/(Pixel*Frame) : 0.105<br>
Stream size : 154 MiB (96%)<br>
Title : Core Media Video<br>
Color range : Limited<br>
Color primaries : BT.709<br>
Transfer characteristics : BT.709<br>
Matrix coefficients : BT.709<br>
Codec configuration box : avcC<br>
<br>
Audio<br>
ID : 2<br>
Format : AAC LC<br>
Format/Info : Advanced Audio Codec Low Complexity<br>
Codec ID : mp4a-40-2<br>
Duration : 3 min 18 s<br>
Bit rate mode : Constant<br>
Bit rate : 265 kb/s<br>
Channel(s) : 2 channels<br>
Channel layout : L R<br>
Sampling rate : 48.0 kHz<br>
Frame rate : 46.875 FPS (1024 SPF)<br>
Compression mode : Lossy<br>
Stream size : 6.33 MiB (4%)<br>
Title : Core Media Audio<br>
Default : Yes<br>
Alternate group : 1</div>
</div><br>
Shake It Off (Taylor's Version) [Lyric Video]<br>
<img src="https://i.imgur.com/IA28e7V.png" class="bbCodeImage LbImage" alt="[​IMG]" data-url="https://i.imgur.com/IA28e7V.png" style=""><br>
<div class="ToggleTriggerAnchor bbCodeSpoilerContainer">
<button type="button" class="button bbCodeSpoilerButton ToggleTrigger Tooltip JsOnly" data-target="> .SpoilerTarget"><span>Spoiler: <span class="SpoilerTitle">MEDIA INFO</span></span></button>
<div class="SpoilerTarget bbCodeSpoilerText">General<br>
Format : MPEG-4<br>
Format profile : Base Media<br>
Codec ID : isom (isom/iso2/avc1/mp41)<br>
File size : 184 MiB<br>
Duration : 3 min 44 s<br>
Overall bit rate : 6 892 kb/s<br>
Movie name : Shake It Off (Taylor's Version) [Lyric Video]<br>
Performer : Taylor Swift<br>
Genre : Pop<br>
ContentType : Music Video<br>
Recorded date : 2023-10-27<br>
ISRC : USUMV2302649<br>
<br>
Video<br>
ID : 1<br>
Format : AVC<br>
Format/Info : Advanced Video Codec<br>
Format profile : High@L4<br>
Format settings : CABAC / 4 Ref Frames<br>
Format settings, CABAC : Yes<br>
Format settings, Reference fra : 4 frames<br>
Codec ID : avc1<br>
Codec ID/Info : Advanced Video Coding<br>
Duration : 3 min 44 s<br>
Bit rate : 6 618 kb/s<br>
Width : 1 920 pixels<br>
Height : 1 080 pixels<br>
Display aspect ratio : 16:9<br>
Frame rate mode : Constant<br>
Frame rate : 23.976 (24000/1001) FPS<br>
Color space : YUV<br>
Chroma subsampling : 4:2:0<br>
Bit depth : 8 bits<br>
Scan type : Progressive<br>
Bits/(Pixel*Frame) : 0.133<br>
Stream size : 177 MiB (96%)<br>
Title : Core Media Video<br>
Color range : Limited<br>
Color primaries : BT.709<br>
Transfer characteristics : BT.709<br>
Matrix coefficients : BT.709<br>
Codec configuration box : avcC<br>
<br>
Audio<br>
ID : 2<br>
Format : AAC LC<br>
Format/Info : Advanced Audio Codec Low Complexity<br>
Codec ID : mp4a-40-2<br>
Duration : 3 min 44 s<br>
Bit rate mode : Constant<br>
Bit rate : 265 kb/s<br>
Channel(s) : 2 channels<br>
Channel layout : L R<br>
Sampling rate : 48.0 kHz<br>
Frame rate : 46.875 FPS (1024 SPF)<br>
Compression mode : Lossy<br>
Stream size : 7.05 MiB (4%)<br>
Title : Core Media Audio<br>
Default : Yes<br>
Alternate group : 1</div>
</div><br>
I Wish You Would (Taylor's Version) [Lyric Video]<br>
<img src="https://i.imgur.com/18oyu2U.png" class="bbCodeImage LbImage" alt="[​IMG]" data-url="https://i.imgur.com/18oyu2U.png" style=""><br>
<div class="ToggleTriggerAnchor bbCodeSpoilerContainer">
<button type="button" class="button bbCodeSpoilerButton ToggleTrigger Tooltip JsOnly" data-target="> .SpoilerTarget"><span>Spoiler: <span class="SpoilerTitle">MEDIA INFO</span></span></button>
<div class="SpoilerTarget bbCodeSpoilerText">General<br>
Format : MPEG-4<br>
Format profile : Base Media<br>
Codec ID : isom (isom/iso2/avc1/mp41)<br>
File size : 168 MiB<br>
Duration : 3 min 32 s<br>
Overall bit rate : 6 640 kb/s<br>
Movie name : I Wish You Would (Taylor's Version) [Lyric Video]<br>
Performer : Taylor Swift<br>
Genre : Pop<br>
ContentType : Music Video<br>
Recorded date : 2023-10-27<br>
ISRC : USUMV2302650<br>
<br>
Video<br>
ID : 1<br>
Format : AVC<br>
Format/Info : Advanced Video Codec<br>
Format profile : High@L4<br>
Format settings : CABAC / 4 Ref Frames<br>
Format settings, CABAC : Yes<br>
Format settings, Reference fra : 4 frames<br>
Codec ID : avc1<br>
Codec ID/Info : Advanced Video Coding<br>
Duration : 3 min 32 s<br>
Bit rate : 6 361 kb/s<br>
Width : 1 920 pixels<br>
Height : 1 080 pixels<br>
Display aspect ratio : 16:9<br>
Frame rate mode : Constant<br>
Frame rate : 29.970 (30000/1001) FPS<br>
Color space : YUV<br>
Chroma subsampling : 4:2:0<br>
Bit depth : 8 bits<br>
Scan type : Progressive<br>
Bits/(Pixel*Frame) : 0.102<br>
Stream size : 161 MiB (96%)<br>
Title : Core Media Video<br>
Color range : Limited<br>
Color primaries : BT.709<br>
Transfer characteristics : BT.709<br>
Matrix coefficients : BT.709<br>
Codec configuration box : avcC<br>
<br>
Audio<br>
ID : 2<br>
Format : AAC LC<br>
Format/Info : Advanced Audio Codec Low Complexity<br>
Codec ID : mp4a-40-2<br>
Duration : 3 min 32 s<br>
Bit rate mode : Constant<br>
Bit rate : 265 kb/s<br>
Channel(s) : 2 channels<br>
Channel layout : L R<br>
Sampling rate : 48.0 kHz<br>
Frame rate : 46.875 FPS (1024 SPF)<br>
Compression mode : Lossy<br>
Stream size : 6.74 MiB (4%)<br>
Title : Core Media Audio<br>
Default : Yes<br>
Alternate group : 1</div>
</div><br>
Bad Blood (Taylor's Version) [Lyric Video]<br>
<img src="https://i.imgur.com/rRkwRzb.png" class="bbCodeImage LbImage" alt="[​IMG]" data-url="https://i.imgur.com/rRkwRzb.png" style=""><br>
<div class="ToggleTriggerAnchor bbCodeSpoilerContainer">
<button type="button" class="button bbCodeSpoilerButton ToggleTrigger Tooltip JsOnly" data-target="> .SpoilerTarget"><span>Spoiler: <span class="SpoilerTitle">MEDIA INFO</span></span></button>
<div class="SpoilerTarget bbCodeSpoilerText">General<br>
Format : MPEG-4<br>
Format profile : Base Media<br>
Codec ID : isom (isom/iso2/avc1/mp41)<br>
File size : 175 MiB<br>
Duration : 3 min 36 s<br>
Overall bit rate : 6 782 kb/s<br>
Movie name : Bad Blood (Taylor's Version) [Lyric Video]<br>
Performer : Taylor Swift<br>
Genre : Pop<br>
ContentType : Music Video<br>
Recorded date : 2023-10-27<br>
ISRC : USUMV2302651<br>
<br>
Video<br>
ID : 1<br>
Format : AVC<br>
Format/Info : Advanced Video Codec<br>
Format profile : High@L4<br>
Format settings : CABAC / 4 Ref Frames<br>
Format settings, CABAC : Yes<br>
Format settings, Reference fra : 4 frames<br>
Codec ID : avc1<br>
Codec ID/Info : Advanced Video Coding<br>
Duration : 3 min 36 s<br>
Bit rate : 6 500 kb/s<br>
Width : 1 920 pixels<br>
Height : 1 080 pixels<br>
Display aspect ratio : 16:9<br>
Frame rate mode : Constant<br>
Frame rate : 29.970 (30000/1001) FPS<br>
Color space : YUV<br>
Chroma subsampling : 4:2:0<br>
Bit depth : 8 bits<br>
Scan type : Progressive<br>
Bits/(Pixel*Frame) : 0.105<br>
Stream size : 168 MiB (96%)<br>
Title : Core Media Video<br>
Color range : Limited<br>
Color primaries : BT.709<br>
Transfer characteristics : BT.709<br>
Matrix coefficients : BT.709<br>
Codec configuration box : avcC<br>
<br>
Audio<br>
ID : 2<br>
Format : AAC LC<br>
Format/Info : Advanced Audio Codec Low Complexity<br>
Codec ID : mp4a-40-2<br>
Duration : 3 min 36 s<br>
Bit rate mode : Constant<br>
Bit rate : 265 kb/s<br>
Channel(s) : 2 channels<br>
Channel layout : L R<br>
Sampling rate : 48.0 kHz<br>
Frame rate : 46.875 FPS (1024 SPF)<br>
Compression mode : Lossy<br>
Stream size : 6.91 MiB (4%)<br>
Title : Core Media Audio<br>
Default : Yes<br>
Alternate group : 1</div>
</div><br>
Wildest Dreams (Taylor's Version) [Lyric Video]<br>
<img src="https://i.imgur.com/WmYLnHn.png" class="bbCodeImage LbImage" alt="[​IMG]" data-url="https://i.imgur.com/WmYLnHn.png" style=""><br>
<div class="ToggleTriggerAnchor bbCodeSpoilerContainer">
<button type="button" class="button bbCodeSpoilerButton ToggleTrigger Tooltip JsOnly" data-target="> .SpoilerTarget"><span>Spoiler: <span class="SpoilerTitle">MEDIA INFO</span></span></button>
<div class="SpoilerTarget bbCodeSpoilerText">General<br>
Format : MPEG-4<br>
Format profile : Base Media<br>
Codec ID : isom (isom/iso2/avc1/mp41)<br>
File size : 183 MiB<br>
Duration : 3 min 46 s<br>
Overall bit rate : 6 798 kb/s<br>
Movie name : Wildest Dreams (Taylor's Version) [Lyric Video]<br>
Performer : Taylor Swift<br>
Genre : Pop<br>
ContentType : Music Video<br>
Recorded date : 2023-10-27<br>
ISRC : USUMV2302652<br>
<br>
Video<br>
ID : 1<br>
Format : AVC<br>
Format/Info : Advanced Video Codec<br>
Format profile : High@L4<br>
Format settings : CABAC / 4 Ref Frames<br>
Format settings, CABAC : Yes<br>
Format settings, Reference fra : 4 frames<br>
Codec ID : avc1<br>
Codec ID/Info : Advanced Video Coding<br>
Duration : 3 min 45 s<br>
Bit rate : 6 525 kb/s<br>
Width : 1 920 pixels<br>
Height : 1 080 pixels<br>
Display aspect ratio : 16:9<br>
Frame rate mode : Constant<br>
Frame rate : 29.970 (30000/1001) FPS<br>
Color space : YUV<br>
Chroma subsampling : 4:2:0<br>
Bit depth : 8 bits<br>
Scan type : Progressive<br>
Bits/(Pixel*Frame) : 0.105<br>
Stream size : 176 MiB (96%)<br>
Title : Core Media Video<br>
Color range : Limited<br>
Color primaries : BT.709<br>
Transfer characteristics : BT.709<br>
Matrix coefficients : BT.709<br>
Codec configuration box : avcC<br>
<br>
Audio<br>
ID : 2<br>
Format : AAC LC<br>
Format/Info : Advanced Audio Codec Low Complexity<br>
Codec ID : mp4a-40-2<br>
Duration : 3 min 46 s<br>
Bit rate mode : Constant<br>
Bit rate : 259 kb/s<br>
Channel(s) : 2 channels<br>
Channel layout : L R<br>
Sampling rate : 48.0 kHz<br>
Frame rate : 46.875 FPS (1024 SPF)<br>
Compression mode : Lossy<br>
Stream size : 6.97 MiB (4%)<br>
Title : Core Media Audio<br>
Default : Yes<br>
Alternate group : 1</div>
</div><br>
How You Get The Girl (Taylor's Version) [Lyric Video]<br>
<img src="https://i.imgur.com/uxqQVXF.png" class="bbCodeImage LbImage" alt="[​IMG]" data-url="https://i.imgur.com/uxqQVXF.png" style=""><br>
<div class="ToggleTriggerAnchor bbCodeSpoilerContainer">
<button type="button" class="button bbCodeSpoilerButton ToggleTrigger Tooltip JsOnly" data-target="> .SpoilerTarget"><span>Spoiler: <span class="SpoilerTitle">MEDIA INFO</span></span></button>
<div class="SpoilerTarget bbCodeSpoilerText">General<br>
Format : MPEG-4<br>
Format profile : Base Media<br>
Codec ID : isom (isom/iso2/avc1/mp41)<br>
File size : 204 MiB<br>
Duration : 4 min 12 s<br>
Overall bit rate : 6 783 kb/s<br>
Movie name : How You Get The Girl (Taylor's Version) [Lyric Video]<br>
Performer : Taylor Swift<br>
Genre : Pop<br>
ContentType : Music Video<br>
Recorded date : 2023-10-27<br>
ISRC : USUMV2302653<br>
<br>
Video<br>
ID : 1<br>
Format : AVC<br>
Format/Info : Advanced Video Codec<br>
Format profile : High@L4<br>
Format settings : CABAC / 4 Ref Frames<br>
Format settings, CABAC : Yes<br>
Format settings, Reference fra : 4 frames<br>
Codec ID : avc1<br>
Codec ID/Info : Advanced Video Coding<br>
Duration : 4 min 12 s<br>
Bit rate : 6 504 kb/s<br>
Width : 1 920 pixels<br>
Height : 1 080 pixels<br>
Display aspect ratio : 16:9<br>
Frame rate mode : Constant<br>
Frame rate : 23.976 (24000/1001) FPS<br>
Color space : YUV<br>
Chroma subsampling : 4:2:0<br>
Bit depth : 8 bits<br>
Scan type : Progressive<br>
Bits/(Pixel*Frame) : 0.131<br>
Stream size : 196 MiB (96%)<br>
Title : Core Media Video<br>
Color range : Limited<br>
Color primaries : BT.709<br>
Transfer characteristics : BT.709<br>
Matrix coefficients : BT.709<br>
Codec configuration box : avcC<br>
<br>
Audio<br>
ID : 2<br>
Format : AAC LC<br>
Format/Info : Advanced Audio Codec Low Complexity<br>
Codec ID : mp4a-40-2<br>
Duration : 4 min 12 s<br>
Bit rate mode : Constant<br>
Bit rate : 265 kb/s<br>
Channel(s) : 2 channels<br>
Channel layout : L R<br>
Sampling rate : 48.0 kHz<br>
Frame rate : 46.875 FPS (1024 SPF)<br>
Compression mode : Lossy<br>
Stream size : 8.07 MiB (4%)<br>
Title : Core Media Audio<br>
Default : Yes<br>
Alternate group : 1</div>
</div><br>
This Love (Taylor's Version) [Lyric Video]<br>
<img src="https://i.imgur.com/4FNahRm.png" class="bbCodeImage LbImage" alt="[​IMG]" data-url="https://i.imgur.com/4FNahRm.png" style=""><br>
<div class="ToggleTriggerAnchor bbCodeSpoilerContainer">
<button type="button" class="button bbCodeSpoilerButton ToggleTrigger Tooltip JsOnly" data-target="> .SpoilerTarget"><span>Spoiler: <span class="SpoilerTitle">MEDIA INFO</span></span></button>
<div class="SpoilerTarget bbCodeSpoilerText">General<br>
Format : MPEG-4<br>
Format profile : Base Media<br>
Codec ID : isom (isom/iso2/avc1/mp41)<br>
File size : 301 MiB<br>
Duration : 4 min 9 s<br>
Overall bit rate : 10.1 Mb/s<br>
Movie name : This Love (Taylor's Version) [Lyric Video]<br>
Performer : Taylor Swift<br>
Genre : Pop<br>
ContentType : Music Video<br>
Recorded date : 2022-05-06<br>
ISRC : USUMV2103344<br>
<br>
Video<br>
ID : 1<br>
Format : AVC<br>
Format/Info : Advanced Video Codec<br>
Format profile : High@L4<br>
Format settings : CABAC / 4 Ref Frames<br>
Format settings, CABAC : Yes<br>
Format settings, Reference fra : 4 frames<br>
Codec ID : avc1<br>
Codec ID/Info : Advanced Video Coding<br>
Duration : 4 min 9 s<br>
Bit rate : 9 816 kb/s<br>
Width : 1 920 pixels<br>
Height : 1 080 pixels<br>
Display aspect ratio : 16:9<br>
Frame rate mode : Constant<br>
Frame rate : 29.970 (30000/1001) FPS<br>
Color space : YUV<br>
Chroma subsampling : 4:2:0<br>
Bit depth : 8 bits<br>
Scan type : Progressive<br>
Bits/(Pixel*Frame) : 0.158<br>
Stream size : 292 MiB (97%)<br>
Title : Core Media Video<br>
Color range : Limited<br>
Color primaries : BT.709<br>
Transfer characteristics : BT.709<br>
Matrix coefficients : BT.709<br>
Codec configuration box : avcC<br>
<br>
Audio<br>
ID : 2<br>
Format : AAC LC<br>
Format/Info : Advanced Audio Codec Low Complexity<br>
Codec ID : mp4a-40-2<br>
Duration : 4 min 9 s<br>
Bit rate mode : Constant<br>
Bit rate : 288 kb/s<br>
Channel(s) : 2 channels<br>
Channel layout : L R<br>
Sampling rate : 48.0 kHz<br>
Frame rate : 46.875 FPS (1024 SPF)<br>
Compression mode : Lossy<br>
Stream size : 8.65 MiB (3%)<br>
Title : Core Media Audio<br>
Default : Yes<br>
Alternate group : 1</div>
</div><br>
I Know Places (Taylor's Version) [Lyric Video]<br>
<img src="https://i.imgur.com/QKmQcnm.png" class="bbCodeImage LbImage" alt="[​IMG]" data-url="https://i.imgur.com/QKmQcnm.png" style=""><br>
<div class="ToggleTriggerAnchor bbCodeSpoilerContainer">
<button type="button" class="button bbCodeSpoilerButton ToggleTrigger Tooltip JsOnly" data-target="> .SpoilerTarget"><span>Spoiler: <span class="SpoilerTitle">MEDIA INFO</span></span></button>
<div class="SpoilerTarget bbCodeSpoilerText">General<br>
Format : MPEG-4<br>
Format profile : Base Media<br>
Codec ID : isom (isom/iso2/avc1/mp41)<br>
File size : 163 MiB<br>
Duration : 3 min 20 s<br>
Overall bit rate : 6 792 kb/s<br>
Movie name : I Know Places (Taylor's Version) [Lyric Video]<br>
Performer : Taylor Swift<br>
Genre : Pop<br>
ContentType : Music Video<br>
Recorded date : 2023-10-27<br>
ISRC : USUMV2302654<br>
<br>
Video<br>
ID : 1<br>
Format : AVC<br>
Format/Info : Advanced Video Codec<br>
Format profile : High@L4<br>
Format settings : CABAC / 4 Ref Frames<br>
Format settings, CABAC : Yes<br>
Format settings, Reference fra : 4 frames<br>
Codec ID : avc1<br>
Codec ID/Info : Advanced Video Coding<br>
Duration : 3 min 20 s<br>
Bit rate : 6 506 kb/s<br>
Width : 1 920 pixels<br>
Height : 1 080 pixels<br>
Display aspect ratio : 16:9<br>
Frame rate mode : Constant<br>
Frame rate : 29.970 (30000/1001) FPS<br>
Color space : YUV<br>
Chroma subsampling : 4:2:0<br>
Bit depth : 8 bits<br>
Scan type : Progressive<br>
Bits/(Pixel*Frame) : 0.105<br>
Stream size : 156 MiB (96%)<br>
Title : Core Media Video<br>
Color range : Limited<br>
Color primaries : BT.709<br>
Transfer characteristics : BT.709<br>
Matrix coefficients : BT.709<br>
Codec configuration box : avcC<br>
<br>
Audio<br>
ID : 2<br>
Format : AAC LC<br>
Format/Info : Advanced Audio Codec Low Complexity<br>
Codec ID : mp4a-40-2<br>
Duration : 3 min 20 s<br>
Bit rate mode : Constant<br>
Bit rate : 273 kb/s<br>
Channel(s) : 2 channels<br>
Channel layout : L R<br>
Sampling rate : 48.0 kHz<br>
Frame rate : 46.875 FPS (1024 SPF)<br>
Compression mode : Lossy<br>
Stream size : 6.53 MiB (4%)<br>
Title : Core Media Audio<br>
Default : Yes<br>
Alternate group : 1</div>
</div><br>
Clean (Taylor's Version) [Lyric Video]<br>
<img src="https://i.imgur.com/YeoIo4l.png" class="bbCodeImage LbImage" alt="[​IMG]" data-url="https://i.imgur.com/YeoIo4l.png" style=""><br>
<div class="ToggleTriggerAnchor bbCodeSpoilerContainer">
<button type="button" class="button bbCodeSpoilerButton ToggleTrigger Tooltip JsOnly" data-target="> .SpoilerTarget"><span>Spoiler: <span class="SpoilerTitle">MEDIA INFO</span></span></button>
<div class="SpoilerTarget bbCodeSpoilerText">General<br>
Format : MPEG-4<br>
Format profile : Base Media<br>
Codec ID : isom (isom/iso2/avc1/mp41)<br>
File size : 226 MiB<br>
Duration : 4 min 36 s<br>
Overall bit rate : 6 848 kb/s<br>
Movie name : Clean (Taylor's Version) [Lyric Video]<br>
Performer : Taylor Swift<br>
Genre : Pop<br>
ContentType : Music Video<br>
Recorded date : 2023-10-27<br>
ISRC : USUMV2302655<br>
<br>
Video<br>
ID : 1<br>
Format : AVC<br>
Format/Info : Advanced Video Codec<br>
Format profile : High@L4<br>
Format settings : CABAC / 4 Ref Frames<br>
Format settings, CABAC : Yes<br>
Format settings, Reference fra : 4 frames<br>
Codec ID : avc1<br>
Codec ID/Info : Advanced Video Coding<br>
Duration : 4 min 36 s<br>
Bit rate : 6 578 kb/s<br>
Width : 1 920 pixels<br>
Height : 1 080 pixels<br>
Display aspect ratio : 16:9<br>
Frame rate mode : Constant<br>
Frame rate : 29.970 (30000/1001) FPS<br>
Color space : YUV<br>
Chroma subsampling : 4:2:0<br>
Bit depth : 8 bits<br>
Scan type : Progressive<br>
Bits/(Pixel*Frame) : 0.106<br>
Stream size : 217 MiB (96%)<br>
Title : Core Media Video<br>
Color range : Limited<br>
Color primaries : BT.709<br>
Transfer characteristics : BT.709<br>
Matrix coefficients : BT.709<br>
Codec configuration box : avcC<br>
<br>
Audio<br>
ID : 2<br>
Format : AAC LC<br>
Format/Info : Advanced Audio Codec Low Complexity<br>
Codec ID : mp4a-40-2<br>
Duration : 4 min 36 s<br>
Bit rate mode : Constant<br>
Bit rate : 256 kb/s<br>
Channel(s) : 2 channels<br>
Channel layout : L R<br>
Sampling rate : 48.0 kHz<br>
Frame rate : 46.875 FPS (1024 SPF)<br>
Compression mode : Lossy<br>
Stream size : 8.44 MiB (4%)<br>
Title : Core Media Audio<br>
Default : Yes<br>
Alternate group : 1</div>
</div><br>
Wonderland (Taylor's Version) [Lyric Video]<br>
<img src="https://i.imgur.com/dagTU0d.png" class="bbCodeImage LbImage" alt="[​IMG]" data-url="https://i.imgur.com/dagTU0d.png" style=""><br>
<div class="ToggleTriggerAnchor bbCodeSpoilerContainer">
<button type="button" class="button bbCodeSpoilerButton ToggleTrigger Tooltip JsOnly" data-target="> .SpoilerTarget"><span>Spoiler: <span class="SpoilerTitle">MEDIA INFO</span></span></button>
<div class="SpoilerTarget bbCodeSpoilerText">General<br>
Format : MPEG-4<br>
Format profile : Base Media<br>
Codec ID : isom (isom/iso2/avc1/mp41)<br>
File size : 295 MiB<br>
Duration : 4 min 10 s<br>
Overall bit rate : 9 873 kb/s<br>
Movie name : Wonderland (Taylor's Version) [Lyric Video]<br>
Performer : Taylor Swift<br>
Genre : Pop<br>
ContentType : Music Video<br>
Recorded date : 2023-10-27<br>
ISRC : USUMV2302656<br>
<br>
Video<br>
ID : 1<br>
Format : AVC<br>
Format/Info : Advanced Video Codec<br>
Format profile : High@L4<br>
Format settings : CABAC / 4 Ref Frames<br>
Format settings, CABAC : Yes<br>
Format settings, Reference fra : 4 frames<br>
Codec ID : avc1<br>
Codec ID/Info : Advanced Video Coding<br>
Duration : 4 min 10 s<br>
Bit rate : 9 599 kb/s<br>
Width : 1 920 pixels<br>
Height : 1 080 pixels<br>
Display aspect ratio : 16:9<br>
Frame rate mode : Constant<br>
Frame rate : 29.970 (30000/1001) FPS<br>
Color space : YUV<br>
Chroma subsampling : 4:2:0<br>
Bit depth : 8 bits<br>
Scan type : Progressive<br>
Bits/(Pixel*Frame) : 0.154<br>
Stream size : 287 MiB (97%)<br>
Title : Core Media Video<br>
Color range : Limited<br>
Color primaries : BT.709<br>
Transfer characteristics : BT.709<br>
Matrix coefficients : BT.709<br>
Codec configuration box : avcC<br>
<br>
Audio<br>
ID : 2<br>
Format : AAC LC<br>
Format/Info : Advanced Audio Codec Low Complexity<br>
Codec ID : mp4a-40-2<br>
Duration : 4 min 10 s<br>
Bit rate mode : Constant<br>
Bit rate : 259 kb/s<br>
Channel(s) : 2 channels<br>
Channel layout : L R<br>
Sampling rate : 48.0 kHz<br>
Frame rate : 46.875 FPS (1024 SPF)<br>
Compression mode : Lossy<br>
Stream size : 7.73 MiB (3%)<br>
Title : Core Media Audio<br>
Default : Yes<br>
Alternate group : 1</div>
</div><br>
You Are In Love (Taylor's Version) [Lyric Video]<br>
<img src="https://i.imgur.com/fe6AYKT.png" class="bbCodeImage LbImage" alt="[​IMG]" data-url="https://i.imgur.com/fe6AYKT.png" style=""><br>
<div class="ToggleTriggerAnchor bbCodeSpoilerContainer">
<button type="button" class="button bbCodeSpoilerButton ToggleTrigger Tooltip JsOnly" data-target="> .SpoilerTarget"><span>Spoiler: <span class="SpoilerTitle">MEDIA INFO</span></span></button>
<div class="SpoilerTarget bbCodeSpoilerText">General<br>
Format : MPEG-4<br>
Format profile : Base Media<br>
Codec ID : isom (isom/iso2/avc1/mp41)<br>
File size : 222 MiB<br>
Duration : 4 min 32 s<br>
Overall bit rate : 6 823 kb/s<br>
Movie name : You Are In Love (Taylor's Version) [Lyric Video]<br>
Performer : Taylor Swift<br>
Genre : Pop<br>
ContentType : Music Video<br>
Recorded date : 2023-10-27<br>
ISRC : USUMV2302657<br>
<br>
Video<br>
ID : 1<br>
Format : AVC<br>
Format/Info : Advanced Video Codec<br>
Format profile : High@L4<br>
Format settings : CABAC / 4 Ref Frames<br>
Format settings, CABAC : Yes<br>
Format settings, Reference fra : 4 frames<br>
Codec ID : avc1<br>
Codec ID/Info : Advanced Video Coding<br>
Duration : 4 min 32 s<br>
Bit rate : 6 551 kb/s<br>
Width : 1 920 pixels<br>
Height : 1 080 pixels<br>
Display aspect ratio : 16:9<br>
Frame rate mode : Constant<br>
Frame rate : 29.970 (30000/1001) FPS<br>
Color space : YUV<br>
Chroma subsampling : 4:2:0<br>
Bit depth : 8 bits<br>
Scan type : Progressive<br>
Bits/(Pixel*Frame) : 0.105<br>
Stream size : 213 MiB (96%)<br>
Title : Core Media Video<br>
Color range : Limited<br>
Color primaries : BT.709<br>
Transfer characteristics : BT.709<br>
Matrix coefficients : BT.709<br>
Codec configuration box : avcC<br>
<br>
Audio<br>
ID : 2<br>
Format : AAC LC<br>
Format/Info : Advanced Audio Codec Low Complexity<br>
Codec ID : mp4a-40-2<br>
Duration : 4 min 32 s<br>
Bit rate mode : Constant<br>
Bit rate : 259 kb/s<br>
Channel(s) : 2 channels<br>
Channel layout : L R<br>
Sampling rate : 48.0 kHz<br>
Frame rate : 46.875 FPS (1024 SPF)<br>
Compression mode : Lossy<br>
Stream size : 8.40 MiB (4%)<br>
Title : Core Media Audio<br>
Default : Yes<br>
Alternate group : 1</div>
</div><br>
New Romantics (Taylor's Version) [Lyric Video]<br>
<img src="https://i.imgur.com/FWFeHBH.png" class="bbCodeImage LbImage" alt="[​IMG]" data-url="https://i.imgur.com/FWFeHBH.png" style=""><br>
<div class="ToggleTriggerAnchor bbCodeSpoilerContainer">
<button type="button" class="button bbCodeSpoilerButton ToggleTrigger Tooltip JsOnly" data-target="> .SpoilerTarget"><span>Spoiler: <span class="SpoilerTitle">MEDIA INFO</span></span></button>
<div class="SpoilerTarget bbCodeSpoilerText">General<br>
Format : MPEG-4<br>
Format profile : Base Media<br>
Codec ID : isom (isom/iso2/avc1/mp41)<br>
File size : 186 MiB<br>
Duration : 3 min 55 s<br>
Overall bit rate : 6 633 kb/s<br>
Movie name : New Romantics (Taylor's Version) [Lyric Video]<br>
Performer : Taylor Swift<br>
Genre : Pop<br>
ContentType : Music Video<br>
Recorded date : 2023-10-27<br>
ISRC : USUMV2302658<br>
<br>
Video<br>
ID : 1<br>
Format : AVC<br>
Format/Info : Advanced Video Codec<br>
Format profile : High@L4<br>
Format settings : CABAC / 4 Ref Frames<br>
Format settings, CABAC : Yes<br>
Format settings, Reference fra : 4 frames<br>
Codec ID : avc1<br>
Codec ID/Info : Advanced Video Coding<br>
Duration : 3 min 55 s<br>
Bit rate : 6 356 kb/s<br>
Width : 1 920 pixels<br>
Height : 1 080 pixels<br>
Display aspect ratio : 16:9<br>
Frame rate mode : Constant<br>
Frame rate : 29.970 (30000/1001) FPS<br>
Color space : YUV<br>
Chroma subsampling : 4:2:0<br>
Bit depth : 8 bits<br>
Scan type : Progressive<br>
Bits/(Pixel*Frame) : 0.102<br>
Stream size : 178 MiB (96%)<br>
Title : Core Media Video<br>
Color range : Limited<br>
Color primaries : BT.709<br>
Transfer characteristics : BT.709<br>
Matrix coefficients : BT.709<br>
Codec configuration box : avcC<br>
<br>
Audio<br>
ID : 2<br>
Format : AAC LC<br>
Format/Info : Advanced Audio Codec Low Complexity<br>
Codec ID : mp4a-40-2<br>
Duration : 3 min 55 s<br>
Bit rate mode : Constant<br>
Bit rate : 265 kb/s<br>
Channel(s) : 2 channels<br>
Channel layout : L R<br>
Sampling rate : 48.0 kHz<br>
Frame rate : 46.875 FPS (1024 SPF)<br>
Compression mode : Lossy<br>
Stream size : 7.40 MiB (4%)<br>
Title : Core Media Audio<br>
Default : Yes<br>
Alternate group : 1</div>
</div><br>
"Slut!" (Taylor's Version) (From The Vault) [Lyric Video]<br>
<img src="https://i.imgur.com/RAVPsud.png" class="bbCodeImage LbImage" alt="[​IMG]" data-url="https://i.imgur.com/RAVPsud.png" style=""><br>
<div class="ToggleTriggerAnchor bbCodeSpoilerContainer">
<button type="button" class="button bbCodeSpoilerButton ToggleTrigger Tooltip JsOnly" data-target="> .SpoilerTarget"><span>Spoiler: <span class="SpoilerTitle">MEDIA INFO</span></span></button>
<div class="SpoilerTarget bbCodeSpoilerText">General<br>
Format : MPEG-4<br>
Format profile : Base Media<br>
Codec ID : isom (isom/iso2/avc1/mp41)<br>
File size : 151 MiB<br>
Duration : 3 min 5 s<br>
Overall bit rate : 6 831 kb/s<br>
Movie name : "Slut!" (Taylor's Version) (From The Vault) [Lyric Video]<br>
Performer : Taylor Swift<br>
Genre : Pop<br>
ContentType : Music Video<br>
Recorded date : 2023-10-27<br>
ISRC : USUMV2302659<br>
<br>
Video<br>
ID : 1<br>
Format : AVC<br>
Format/Info : Advanced Video Codec<br>
Format profile : High@L4<br>
Format settings : CABAC / 4 Ref Frames<br>
Format settings, CABAC : Yes<br>
Format settings, Reference fra : 4 frames<br>
Format settings, GOP : M=2, N=91<br>
Codec ID : avc1<br>
Codec ID/Info : Advanced Video Coding<br>
Duration : 3 min 5 s<br>
Bit rate : 6 565 kb/s<br>
Width : 1 920 pixels<br>
Height : 1 080 pixels<br>
Display aspect ratio : 16:9<br>
Frame rate mode : Constant<br>
Frame rate : 23.976 (24000/1001) FPS<br>
Color space : YUV<br>
Chroma subsampling : 4:2:0<br>
Bit depth : 8 bits<br>
Scan type : Progressive<br>
Bits/(Pixel*Frame) : 0.132<br>
Stream size : 145 MiB (96%)<br>
Title : Core Media Video<br>
Color range : Limited<br>
Color primaries : BT.709<br>
Transfer characteristics : BT.709<br>
Matrix coefficients : BT.709<br>
Codec configuration box : avcC<br>
<br>
Audio<br>
ID : 2<br>
Format : AAC LC<br>
Format/Info : Advanced Audio Codec Low Complexity<br>
Codec ID : mp4a-40-2<br>
Duration : 3 min 5 s<br>
Bit rate mode : Constant<br>
Bit rate : 257 kb/s<br>
Channel(s) : 2 channels<br>
Channel layout : L R<br>
Sampling rate : 48.0 kHz<br>
Frame rate : 46.875 FPS (1024 SPF)<br>
Compression mode : Lossy<br>
Stream size : 5.68 MiB (4%)<br>
Title : Core Media Audio<br>
Default : Yes<br>
Alternate group : 1</div>
</div><br>
Say Don't Go (Taylor's Version) (From The Vault) [Lyric Video]<br>
<img src="https://i.imgur.com/BSfF1yA.png" class="bbCodeImage LbImage" alt="[​IMG]" data-url="https://i.imgur.com/BSfF1yA.png" style=""><br>
<div class="ToggleTriggerAnchor bbCodeSpoilerContainer">
<button type="button" class="button bbCodeSpoilerButton ToggleTrigger Tooltip JsOnly" data-target="> .SpoilerTarget"><span>Spoiler: <span class="SpoilerTitle">MEDIA INFO</span></span></button>
<div class="SpoilerTarget bbCodeSpoilerText">General<br>
Format : MPEG-4<br>
Format profile : Base Media<br>
Codec ID : isom (isom/iso2/avc1/mp41)<br>
File size : 238 MiB<br>
Duration : 4 min 45 s<br>
Overall bit rate : 6 983 kb/s<br>
Movie name : Say Don't Go (Taylor's Version) (From The Vault) [Lyric Video]<br>
Performer : Taylor Swift<br>
Genre : Pop<br>
ContentType : Music Video<br>
Recorded date : 2023-10-27<br>
ISRC : USUMV2302660<br>
<br>
Video<br>
ID : 1<br>
Format : AVC<br>
Format/Info : Advanced Video Codec<br>
Format profile : High@L4<br>
Format settings : CABAC / 4 Ref Frames<br>
Format settings, CABAC : Yes<br>
Format settings, Reference fra : 4 frames<br>
Codec ID : avc1<br>
Codec ID/Info : Advanced Video Coding<br>
Duration : 4 min 45 s<br>
Bit rate : 6 706 kb/s<br>
Width : 1 920 pixels<br>
Height : 1 080 pixels<br>
Display aspect ratio : 16:9<br>
Frame rate mode : Constant<br>
Frame rate : 29.970 (30000/1001) FPS<br>
Color space : YUV<br>
Chroma subsampling : 4:2:0<br>
Bit depth : 8 bits<br>
Scan type : Progressive<br>
Bits/(Pixel*Frame) : 0.108<br>
Stream size : 228 MiB (96%)<br>
Title : Core Media Video<br>
Color range : Limited<br>
Color primaries : BT.709<br>
Transfer characteristics : BT.709<br>
Matrix coefficients : BT.709<br>
Codec configuration box : avcC<br>
<br>
Audio<br>
ID : 2<br>
Format : AAC LC<br>
Format/Info : Advanced Audio Codec Low Complexity<br>
Codec ID : mp4a-40-2<br>
Duration : 4 min 45 s<br>
Bit rate mode : Constant<br>
Bit rate : 265 kb/s<br>
Channel(s) : 2 channels<br>
Channel layout : L R<br>
Sampling rate : 48.0 kHz<br>
Frame rate : 46.875 FPS (1024 SPF)<br>
Compression mode : Lossy<br>
Stream size : 8.93 MiB (4%)<br>
Title : Core Media Audio<br>
Default : Yes<br>
Alternate group : 1</div>
</div><br>
Now That We Don't Talk (Taylor's Version) (From The Vault) [Lyric Video]<br>
<img src="https://i.imgur.com/scvwwiV.png" class="bbCodeImage LbImage" alt="[​IMG]" data-url="https://i.imgur.com/scvwwiV.png" style=""><br>
<div class="ToggleTriggerAnchor bbCodeSpoilerContainer">
<button type="button" class="button bbCodeSpoilerButton ToggleTrigger Tooltip JsOnly" data-target="> .SpoilerTarget"><span>Spoiler: <span class="SpoilerTitle">MEDIA INFO</span></span></button>
<div class="SpoilerTarget bbCodeSpoilerText">General<br>
Format : MPEG-4<br>
Format profile : Base Media<br>
Codec ID : isom (isom/iso2/avc1/mp41)<br>
File size : 174 MiB<br>
Duration : 2 min 31 s<br>
Overall bit rate : 9 626 kb/s<br>
Movie name : Now That We Don't Talk (Taylor's Version) (From The Vault) [Lyric Video]<br>
Performer : Taylor Swift<br>
Genre : Pop<br>
ContentType : Music Video<br>
Recorded date : 2023-10-27<br>
ISRC : USUMV2302661<br>
<br>
Video<br>
ID : 1<br>
Format : AVC<br>
Format/Info : Advanced Video Codec<br>
Format profile : High@L4<br>
Format settings : CABAC / 4 Ref Frames<br>
Format settings, CABAC : Yes<br>
Format settings, Reference fra : 4 frames<br>
Codec ID : avc1<br>
Codec ID/Info : Advanced Video Coding<br>
Duration : 2 min 31 s<br>
Bit rate : 9 354 kb/s<br>
Width : 1 920 pixels<br>
Height : 1 080 pixels<br>
Display aspect ratio : 16:9<br>
Frame rate mode : Constant<br>
Frame rate : 29.970 (30000/1001) FPS<br>
Color space : YUV<br>
Chroma subsampling : 4:2:0<br>
Bit depth : 8 bits<br>
Scan type : Progressive<br>
Bits/(Pixel*Frame) : 0.151<br>
Stream size : 169 MiB (97%)<br>
Title : Core Media Video<br>
Color range : Limited<br>
Color primaries : BT.709<br>
Transfer characteristics : BT.709<br>
Matrix coefficients : BT.709<br>
Codec configuration box : avcC<br>
<br>
Audio<br>
ID : 2<br>
Format : AAC LC<br>
Format/Info : Advanced Audio Codec Low Complexity<br>
Codec ID : mp4a-40-2<br>
Duration : 2 min 31 s<br>
Bit rate mode : Constant<br>
Bit rate : 258 kb/s<br>
Channel(s) : 2 channels<br>
Channel layout : L R<br>
Sampling rate : 48.0 kHz<br>
Frame rate : 46.875 FPS (1024 SPF)<br>
Compression mode : Lossy<br>
Stream size : 4.65 MiB (3%)<br>
Title : Core Media Audio<br>
Default : Yes<br>
Alternate group : 1</div>
</div><br>
Suburban Legends (Taylor's Version) (From The Vault) [Lyric Video]<br>
<img src="https://i.imgur.com/hadAOlj.png" class="bbCodeImage LbImage" alt="[​IMG]" data-url="https://i.imgur.com/hadAOlj.png" style=""><br>
<div class="ToggleTriggerAnchor bbCodeSpoilerContainer">
<button type="button" class="button bbCodeSpoilerButton ToggleTrigger Tooltip JsOnly" data-target="> .SpoilerTarget"><span>Spoiler: <span class="SpoilerTitle">MEDIA INFO</span></span></button>
<div class="SpoilerTarget bbCodeSpoilerText">General<br>
Format : MPEG-4<br>
Format profile : Base Media<br>
Codec ID : isom (isom/iso2/avc1/mp41)<br>
File size : 145 MiB<br>
Duration : 2 min 57 s<br>
Overall bit rate : 6 867 kb/s<br>
Movie name : Suburban Legends (Taylor's Version) (From The Vault) [Lyric Video]<br>
Performer : Taylor Swift<br>
Genre : Pop<br>
ContentType : Music Video<br>
Recorded date : 2023-10-27<br>
ISRC : USUMV2302662<br>
<br>
Video<br>
ID : 1<br>
Format : AVC<br>
Format/Info : Advanced Video Codec<br>
Format profile : High@L4<br>
Format settings : CABAC / 4 Ref Frames<br>
Format settings, CABAC : Yes<br>
Format settings, Reference fra : 4 frames<br>
Codec ID : avc1<br>
Codec ID/Info : Advanced Video Coding<br>
Duration : 2 min 56 s<br>
Bit rate : 6 601 kb/s<br>
Width : 1 920 pixels<br>
Height : 1 080 pixels<br>
Display aspect ratio : 16:9<br>
Frame rate mode : Constant<br>
Frame rate : 29.970 (30000/1001) FPS<br>
Color space : YUV<br>
Chroma subsampling : 4:2:0<br>
Bit depth : 8 bits<br>
Scan type : Progressive<br>
Bits/(Pixel*Frame) : 0.106<br>
Stream size : 139 MiB (96%)<br>
Title : Core Media Video<br>
Color range : Limited<br>
Color primaries : BT.709<br>
Transfer characteristics : BT.709<br>
Matrix coefficients : BT.709<br>
Codec configuration box : avcC<br>
<br>
Audio<br>
ID : 2<br>
Format : AAC LC<br>
Format/Info : Advanced Audio Codec Low Complexity<br>
Codec ID : mp4a-40-2<br>
Duration : 2 min 57 s<br>
Bit rate mode : Constant<br>
Bit rate : 253 kb/s<br>
Channel(s) : 2 channels<br>
Channel layout : L R<br>
Sampling rate : 48.0 kHz<br>
Frame rate : 46.875 FPS (1024 SPF)<br>
Compression mode : Lossy<br>
Stream size : 5.35 MiB (4%)<br>
Title : Core Media Audio<br>
Default : Yes<br>
Alternate group : 1</div>
</div><br>
Is It Over Now? (Taylor's Version) (From The Vault) [Lyric Video]<br>
<img src="https://i.imgur.com/HLQ9gBZ.png" class="bbCodeImage LbImage" alt="[​IMG]" data-url="https://i.imgur.com/HLQ9gBZ.png" style=""><br>
<div class="ToggleTriggerAnchor bbCodeSpoilerContainer">
<button type="button" class="button bbCodeSpoilerButton ToggleTrigger Tooltip JsOnly" data-target="> .SpoilerTarget"><span>Spoiler: <span class="SpoilerTitle">MEDIA INFO</span></span></button>
<div class="SpoilerTarget bbCodeSpoilerText">General<br>
Format : MPEG-4<br>
Format profile : Base Media<br>
Codec ID : isom (isom/iso2/avc1/mp41)<br>
File size : 194 MiB<br>
Duration : 3 min 54 s<br>
Overall bit rate : 6 945 kb/s<br>
Movie name : Is It Over Now? (Taylor's Version) (From The Vault) [Lyric Video]<br>
Performer : Taylor Swift<br>
Genre : Pop<br>
ContentType : Music Video<br>
Recorded date : 2023-10-27<br>
ISRC : USUMV2302663<br>
<br>
Video<br>
ID : 1<br>
Format : AVC<br>
Format/Info : Advanced Video Codec<br>
Format profile : High@L4<br>
Format settings : CABAC / 4 Ref Frames<br>
Format settings, CABAC : Yes<br>
Format settings, Reference fra : 4 frames<br>
Codec ID : avc1<br>
Codec ID/Info : Advanced Video Coding<br>
Duration : 3 min 54 s<br>
Bit rate : 6 673 kb/s<br>
Width : 1 920 pixels<br>
Height : 1 080 pixels<br>
Display aspect ratio : 16:9<br>
Frame rate mode : Constant<br>
Frame rate : 29.970 (30000/1001) FPS<br>
Color space : YUV<br>
Chroma subsampling : 4:2:0<br>
Bit depth : 8 bits<br>
Scan type : Progressive<br>
Bits/(Pixel*Frame) : 0.107<br>
Stream size : 187 MiB (96%)<br>
Title : Core Media Video<br>
Color range : Limited<br>
Color primaries : BT.709<br>
Transfer characteristics : BT.709<br>
Matrix coefficients : BT.709<br>
Codec configuration box : avcC<br>
<br>
Audio<br>
ID : 2<br>
Format : AAC LC<br>
Format/Info : Advanced Audio Codec Low Complexity<br>
Codec ID : mp4a-40-2<br>
Duration : 3 min 54 s<br>
Bit rate mode : Constant<br>
Bit rate : 258 kb/s<br>
Channel(s) : 2 channels<br>
Channel layout : L R<br>
Sampling rate : 48.0 kHz<br>
Frame rate : 46.875 FPS (1024 SPF)<br>
Compression mode : Lossy<br>
Stream size : 7.22 MiB (4%)<br>
Title : Core Media Audio<br>
Default : Yes<br>
Alternate group : 1</div>
</div><br>
<img src="https://i.imgur.com/po1yOv2.jpg" class="bbCodeImage LbImage" alt="[​IMG]" data-url="https://i.imgur.com/po1yOv2.jpg" style=""><br>
<br>
<div class="bbCodeBlock bbCodeVfcHH HiddenContent">
<div class="attribution type">Hidden Content:</div>
<blockquote>You must either reply or click 'Like' to see the hidden information contained here.</blockquote>
</div>
<div class="messageTextEndMarker">&nbsp;</div>
</blockquote>
</article>]]></description>
                <author><![CDATA[exampleabc853]]></author>
                </item>

                
                <item>
                <title><![CDATA[【Bugs!】Kwon Eun Bi (IZ*ONE) - Underwater [Bugs! 4K Re upload] (H.264/MP4)]]></title>
                <link><![CDATA[https://sharemania.us/threads/kwon-eun-bi-iz-one-underwater-bugs-4k-re-upload-h-264-mp4.231202/]]></link>
                <description><![CDATA[<article>
<blockquote class="messageText SelectQuoteContainer ugc baseHtml">
thanks
<div class="messageTextEndMarker">&nbsp;</div>
</blockquote>
</article>]]></description>
                <author><![CDATA[Kim Min Jeong]]></author>
                </item>

                
                <item>
                <title><![CDATA[【Bugs!】Kwon Eun Bi (IZ*ONE) - Glich [Bugs! 4K] (H.264/MP4)]]></title>
                <link><![CDATA[https://sharemania.us/threads/kwon-eun-bi-iz-one-glich-bugs-4k-h-264-mp4.231201/]]></link>
                <description><![CDATA[<article>
<blockquote class="messageText SelectQuoteContainer ugc baseHtml">
Interesting &gt;&gt;&gt; Thanks
<div class="messageTextEndMarker">&nbsp;</div>
</blockquote>
</article>]]></description>
                <author><![CDATA[Kim Min Jeong]]></author>
                </item>

                
                <item>
                <title><![CDATA[【Bugs!】Kwon Eun Bi (IZ*ONE) - Door [Bugs! 4K] (H.264/MP4)]]></title>
                <link><![CDATA[https://sharemania.us/threads/kwon-eun-bi-iz-one-door-bugs-4k-h-264-mp4.231198/]]></link>
                <description><![CDATA[<article>
<blockquote class="messageText SelectQuoteContainer ugc baseHtml">
thanks
<div class="messageTextEndMarker">&nbsp;</div>
</blockquote>
</article>]]></description>
                <author><![CDATA[Kim Min Jeong]]></author>
                </item>

                
                <item>
                <title><![CDATA[【Bugs!】Kwon Eun Bi (IZ*ONE) - Like Heaven [Bugs! 4K] (H.264/MP4)]]></title>
                <link><![CDATA[https://sharemania.us/threads/kwon-eun-bi-iz-one-like-heaven-bugs-4k-h-264-mp4.231203/]]></link>
                <description><![CDATA[<article>
<blockquote class="messageText SelectQuoteContainer ugc baseHtml">
ALL CREDITS <a href="https://sharemania.us/members/135689/" class="username" data-user="135689, @curious_chae">@curious_chae</a> <br>
<br>
<img src="https://i.imgur.com/dTg1X5T.jpg" class="bbCodeImage LbImage" alt="[​IMG]" data-url="https://i.imgur.com/dTg1X5T.jpg" style=""> <br>
<br>
<img src="https://i.imgur.com/n42JzIr.jpg" class="bbCodeImage LbImage" alt="[​IMG]" data-url="https://i.imgur.com/n42JzIr.jpg" style=""> <br>
<br>
<div class="bbCodeBlock bbCodeVfcHH HiddenContent">
<div class="attribution type">Hidden Content:</div>
<blockquote>You must reply before you can see the hidden data contained here.</blockquote>
</div>
<div class="messageTextEndMarker">&nbsp;</div>
</blockquote>
</article>]]></description>
                <author><![CDATA[Kim Min Jeong]]></author>
                </item>

                
                <item>
                <title><![CDATA[【Bugs!】Kwon Eun Bi (IZ*ONE) - Door (Chreography Ver.)[Bugs! 4K] (H.264/MP4)]]></title>
                <link><![CDATA[https://sharemania.us/threads/kwon-eun-bi-iz-one-door-chreography-ver-bugs-4k-h-264-mp4.231199/]]></link>
                <description><![CDATA[<article>
<blockquote class="messageText SelectQuoteContainer ugc baseHtml">
<b>ALL CREDITS &amp; PURCHASE BY <a href="https://sharemania.us/members/148511/" class="username" data-user="148511, @Kim Min Jeong">@Kim Min Jeong</a> </b><br>
<br>
<img src="https://i.imgur.com/deIFSTg.jpg" class="bbCodeImage LbImage" alt="[​IMG]" data-url="https://i.imgur.com/deIFSTg.jpg" style=""> <br>
<br>
<div class="bbCodeBlock bbCodeVfcHH HiddenContent">
<div class="attribution type">Hidden Content:</div>
<blockquote>You must reply before you can see the hidden data contained here.</blockquote>
</div>
<div class="messageTextEndMarker">&nbsp;</div>
</blockquote>
</article>]]></description>
                <author><![CDATA[Kim Min Jeong]]></author>
                </item>

                </channel></rss>